<?xml version="1.0" encoding="utf-8"?>
<!-- Generator: Adobe Illustrator 24.1.0, SVG Export Plug-In . SVG Version: 6.00 Build 0)  -->
<svg version="1.1" id="Layer_1" xmlns="http://www.w3.org/2000/svg" xmlns:xlink="http://www.w3.org/1999/xlink" x="0px" y="0px"
	 viewBox="0 0 100 125" style="enable-background:new 0 0 100 125;" xml:space="preserve">
<style type="text/css">
	.st0{fill:#5750EC;}
</style>
<g>
	<polygon class="st0" points="31.7,44.5 39.1,44.5 35.5,33 	"/>
	<path class="st0" d="M68.7,31.9c-0.6-0.3-1.6-0.5-2.8-0.5h-6.7v7.8h6.6c1.3,0,2.3-0.2,2.9-0.5c1.2-0.6,1.7-1.7,1.7-3.3
		C70.3,33.7,69.8,32.5,68.7,31.9z"/>
	<path class="st0" d="M84,5H16C9.9,5,5,9.6,5,15.3V67c0,5.7,4.9,10.3,11,10.3h7.2v15.3c0,0.9,0.6,1.8,1.5,2.2
		c0.4,0.2,0.7,0.2,1.1,0.2c0.6,0,1.2-0.2,1.7-0.5l22.7-17.2H84c6.1,0,11-4.6,11-10.3V15.3C95,9.6,90.1,5,84,5z M42.7,55.5l-1.9-6H30
		l-2,6h-6.4L32,26.3h7l10.3,29.2H42.7z M76.9,55.5h-6.7c-0.2-0.6-0.3-1.2-0.4-1.6c-0.2-0.8-0.2-1.7-0.3-2.5v-2.7
		c0-1.9-0.3-3.1-1-3.7c-0.6-0.6-1.8-0.9-3.5-0.9h-6v11.4h-6V26.3h14c2,0,3.5,0.3,4.6,0.8s2,1.1,2.7,2c0.6,0.7,1.1,1.6,1.5,2.5
		c0.4,0.9,0.5,1.9,0.5,3.1c0,1.4-0.4,2.8-1,4.1c-0.7,1.3-1.9,2.3-3.5,2.8c1.3,0.5,2.3,1.3,2.9,2.3s0.8,2.5,0.8,4.6v2
		c0,1.3,0.1,2.2,0.2,2.7c0.2,0.8,0.5,1.3,1.1,1.7v0.6H76.9z"/>
</g>
</svg>
