<?xml version="1.0" encoding="utf-8"?>
<!-- Generator: Adobe Illustrator 24.1.0, SVG Export Plug-In . SVG Version: 6.00 Build 0)  -->
<svg version="1.1" id="Layer_1" xmlns="http://www.w3.org/2000/svg" xmlns:xlink="http://www.w3.org/1999/xlink" x="0px" y="0px"
	 viewBox="0 0 1200 1200" style="enable-background:new 0 0 1200 1200;" xml:space="preserve">
<style type="text/css">
	.st0{fill:#5750EC;}
</style>
<path class="st0" d="M1035.58,1013.86c-12.4,11.81-22.76,23.15-34.6,33.13c-17.26,14.54-35.56,27.32-54.98,38.84
	c-11.09,6.58-22.87,11.45-34.16,17.42c-17.76,9.39-37.12,14.24-55.83,20.97c-26.63,9.57-54.47,12.92-81.99,18.11
	c-40.1,7.57-80.64,8.23-121.2,8.22c-31.35,0-62.83-0.85-93.71-6.2c-25.22-4.37-50.92-7.81-74.98-17.13
	c-13.36-5.18-27.08-9.93-39.45-17.35c-17.99-10.8-34.92-23.22-48.58-39.26c-25.37-29.81-39.76-64.73-46.28-103.14
	c-6.12-36.08-5.72-72.27-2.63-108.57c3.91-46.02,13.56-90.84,27.72-134.72c9.31-28.84,20.61-56.91,33.32-84.43
	c12.12-26.24,24.99-52.01,41.43-75.92c6.85-9.97,14.48-19.22,22.66-27.99c3.41-3.65,2.39-4.74-0.89-7.43
	c-9.44-7.75-21.5-10.76-31.22-17.84c-18.02-13.12-35.09-27.3-49.84-44.18c-6.77-7.74-13.78-15.19-19.86-23.57
	c-14.26-19.66-24.83-40.88-29.5-64.84c-3.13-16.03-2.72-31.95,1.9-47.66c6.28-21.32,15.3-41.54,24.96-61.49
	c14.06-29.02,29.91-57.09,46.47-84.71c10.97-18.3,22.87-36.05,36.01-53c14.56-18.79,30-36.53,48.38-51.73
	c12.81-10.59,26.93-18.31,42.41-24.3c13.99-5.42,28.24-7.92,42.08-2.92c15.02,5.43,30.14,11.51,42.64,22.19
	c1.79,1.53,3.97,2.61,6,3.86c14.54,8.95,27.47,20.07,40.52,30.91c12.87,10.69,25.11,22.28,36.56,34.47
	c8.31,8.84,16.61,18.1,21.27,29.75c0.73,1.84,1.65,3.6,2.3,5.47c3.31,9.53,1.63,11.94-7.98,9.63c-13.2-3.18-26.29-6.56-39.82-8.35
	c-26.1-3.46-52.23-3.12-78.38-1.47c-14.84,0.94-29.75,2.09-44.22,5.55c-20.89,4.99-41.94,9.74-61.69,18.42
	c-10.6,4.66-20.74,10.46-30.83,16.2c-7.21,4.1-13.26,9.86-19.09,15.73c-8.31,8.36-7.09,19.01-6.06,29.21
	c2.85,28.14,14.57,51.74,36.02,70.7c7.96,7.04,16.6,12.61,25.62,17.95c37.33,22.11,77.18,21.69,117.92,13.42
	c9.9-2.01,19.79-4.28,29.25-7.83c16.79-6.3,33.86-12.11,49.93-19.94c13.68-6.66,28.04-11.58,41.64-18.22
	c17.84-8.71,37.05-13.38,55.47-20.32c16.07-6.05,32.7-8.69,49.38-11.54c0.53-0.09,1.12,0.18,2.3,0.4
	c-4.92,14.17-9.73,28.16-14.63,42.13c-10.67,30.44-22.51,60.44-34.45,90.4c-1.45,3.64-3.55,5.44-7.3,6.78
	c-17.06,6.08-34.38,11.72-50.76,19.33c-13.22,6.14-27.09,10.99-39.71,18.31c-11.95,6.93-24.9,12.06-36.39,19.63
	c-9.74,6.41-20.25,11.48-29.79,18.14c-17.78,12.41-35.77,24.56-53,37.71c-14.72,11.23-28.89,23.28-42.61,35.73
	c-19.62,17.79-37.77,37.11-54.05,58.01c-12.75,16.38-24.03,33.84-33.42,52.41c-20.24,40.03-30.8,82.34-28.24,127.33
	c1.73,30.41,10.36,58.69,28.53,83.77c10.07,13.9,21.77,25.85,35.28,36.41c22.34,17.47,47.47,29.12,73.73,39.36
	c21.33,8.32,43.46,12.75,65.43,18.29c42.25,10.66,85.46,13.52,128.65,16.79c17.81,1.35,35.68,1.58,53.48,2.7
	c72.3,4.58,144.66,1.15,216.98,2.27C1031.08,1013.87,1032.43,1013.86,1035.58,1013.86z"/>
</svg>
