<?xml version="1.0" encoding="utf-8"?>
<!-- Generator: Adobe Illustrator 24.1.0, SVG Export Plug-In . SVG Version: 6.00 Build 0)  -->
<svg version="1.1" id="Layer_1" xmlns="http://www.w3.org/2000/svg" xmlns:xlink="http://www.w3.org/1999/xlink" x="0px" y="0px"
	 viewBox="0 0 100 125" style="enable-background:new 0 0 100 125;" xml:space="preserve">
<style type="text/css">
	.st0{fill:#5750EC;}
</style>
<g id="Layer_2_1_">
</g>
<g id="Layer_1_1_">
	<g>
		<path class="st0" d="M97.9,48L80.2,18.2c-2.1-3.6-6-4.6-9-2.8L24,43.5c-2.6,1.5-3.7,4.6-2.5,7.7c-4.1,2.6-10.8,28.2-10.8,28.2
			l-5.8,4.8c-1.3,1.1-1.7,2.9-1,4.5l10.2,19c0.9,1.6,2.8,2.3,4.5,1.6c3.2-1.4,8.5-3.4,13.3-4.1c3.7-0.5,8.3-4.1,9-5.1
			c2.4-2.9,26.7-32.8,26.7-32.8c2.4-3,1.8-7.5-1.4-9.7c-2.9-2-6.9-1.3-9.2,1.4L45.5,73.1c-1.8,2.2-5.1,1.9-6.5-0.5l-6-10.1
			l50.5-30.1l10.2,17.1c0.5,0.9,0.2,2.1-0.7,2.7L73.7,63.7c0,0.1,0,0.1,0,0.2c0,1.5-0.5,3-1.5,4.2L60.4,82.6l0.3,0.5
			c1.2,2.2,4,2.9,6.2,1.7l0.7-0.4c2.2-1.2,3.1-3.8,2.5-6.1c0.5,0.2,1,0.2,1.5,0.2c0.9,0,1.8-0.2,2.6-0.7c2.5-1.4,3.4-4.7,2-7.2l0,0
			c0.5,0.2,1,0.2,1.6,0.2c0.9,0,1.8-0.2,2.6-0.7c2.4-1.3,3.3-4.3,2.2-6.7l12.7-7.5C98.3,54.2,99.3,50.3,97.9,48z M28.2,54.4
			l-2.7-4.5c-0.6-0.9-0.2-2.1,0.7-2.7l47.2-28.1c0.9-0.5,2.1-0.2,2.7,0.7l2.7,4.5L28.2,54.4z"/>
		<path class="st0" d="M75.3,56.1l8.9-5.3c0.9-0.5,1.2-1.7,0.7-2.6l-3-5.1c-0.5-0.9-1.7-1.2-2.6-0.7l-8.9,5.3
			c-0.9,0.5-1.2,1.7-0.7,2.6l3,5.1C73.2,56.3,74.4,56.6,75.3,56.1z"/>
	</g>
</g>
</svg>
