<?xml version="1.0" encoding="utf-8"?>
<!-- Generator: Adobe Illustrator 24.1.0, SVG Export Plug-In . SVG Version: 6.00 Build 0)  -->
<svg version="1.1" id="Layer_1" xmlns="http://www.w3.org/2000/svg" xmlns:xlink="http://www.w3.org/1999/xlink" x="0px" y="0px"
	 viewBox="0 0 583.22 562" style="enable-background:new 0 0 583.22 562;" xml:space="preserve">
<style type="text/css">
	.st0{fill:#5750EC;}
</style>
<polygon class="st0" points="522,380.5 522,522 40,522 40,40 522,40 522,181.5 562,181.5 562,0 0,0 0,562 562,562 562,380.5 "/>
<path class="st0" d="M333.7,303.65c3.28,0,4.92,1.27,4.92,3.81v8.24c0,3.38-1.64,5.07-4.92,5.07h-15.41
	c-13.93,0.07-27.64-3.47-39.8-10.27c-4.28,2.14-8.45,4.42-12.52,6.85c-3.92,2.31-7.54,5.08-10.81,8.24
	c-3.12,3.03-5.68,6.58-7.59,10.48c-2.01,4.32-3,9.05-2.89,13.81c0,8.98,2.96,16.22,8.88,21.72c5.92,5.5,14.94,8.25,27.07,8.24
	c3.51-0.03,7.01-0.32,10.48-0.86c3.86-0.57,7.21-1.22,10.06-1.93c0.24,2.6,0.67,5.17,1.29,7.71c0.57,2.33,1,4.68,1.28,7.06
	c-3.95,1.42-8.04,2.42-12.2,3c-5.23,0.85-10.53,1.28-15.83,1.28c-6.05-0.01-12.06-0.87-17.87-2.57c-5.75-1.62-11.13-4.34-15.84-8
	c-4.76-3.78-8.63-8.56-11.34-14c-2.93-5.71-4.39-12.56-4.39-20.54c-0.13-6.32,1.07-12.59,3.53-18.41c2.26-5.12,5.34-9.85,9.1-14
	c3.66-4.01,7.79-7.57,12.3-10.59c4.31-2.91,8.78-5.57,13.38-7.99c-2.86-2.56-5.82-5.45-8.88-8.66c-3.06-3.21-5.99-6.46-8.78-9.74
	c-2.65-3.1-5.08-6.39-7.27-9.84c-1.8-2.74-3.28-5.69-4.39-8.78l-1.07-15.62c3.7-2.79,7.64-5.25,11.77-7.36
	c4.21-2.18,8.58-4.05,13.07-5.58c4.29-1.47,8.69-2.61,13.15-3.42c9.68-1.8,19.63-1.55,29.21,0.75c4.42,1.06,8.67,2.72,12.64,4.94
	c3.1,1.71,5.77,4.11,7.81,7c1.67,2.28,2.6,5.01,2.68,7.83c-0.07,2.93-0.46,5.85-1.18,8.69c-1.02,3.96-2.53,7.79-4.49,11.38
	c-2.67,4.89-5.78,9.53-9.31,13.84c-4.68,5.72-9.84,11.03-15.41,15.88c3.24,0.79,6.53,1.36,9.84,1.72c4.84,0.48,9.7,0.7,14.56,0.64
	L333.7,303.65z M283.62,245.87c-3.08,0.02-6.16,0.27-9.2,0.75c-3.29,0.5-6.54,1.22-9.73,2.14c-3.08,0.88-6.09,1.99-9,3.32
	c-2.48,1.09-4.82,2.45-7,4.06c1.41,2.87,2.98,5.66,4.71,8.35c2.14,3.42,4.6,6.95,7.38,10.59c2.8,3.66,5.84,7.13,9.1,10.38
	c2.95,3.02,6.26,5.68,9.84,7.92c3.78-2.15,7.3-4.74,10.49-7.7c3.34-3.07,6.42-6.41,9.2-10c2.55-3.17,4.77-6.6,6.62-10.23
	c1.45-2.67,2.29-5.63,2.46-8.66c-0.01-1.89-0.83-3.68-2.25-4.93c-1.67-1.52-3.64-2.69-5.78-3.42c-2.56-0.91-5.21-1.56-7.91-1.93
	C289.59,246.08,286.61,245.87,283.62,245.87L283.62,245.87z"/>
<path class="st0" d="M330.7,320.77c-3.28,0-4.92-1.27-4.92-3.8v-8.25c0-3.38,1.64-5.07,4.92-5.07h32.1v-64.2h17.12v81.32H330.7z
	 M360.03,355.23c-0.02-5.45,4.39-9.88,9.84-9.9c5.45-0.02,9.88,4.39,9.9,9.84c0.02,5.45-4.39,9.88-9.84,9.9
	c-2.63,0.01-5.15-1.03-7.01-2.89C361.04,360.36,359.99,357.85,360.03,355.23z"/>
<path class="st0" d="M479.43,303.65c3.28,0,4.92,1.27,4.92,3.81v8.24c0,3.38-1.64,5.07-4.92,5.07h-4.06c-2.43,0-4.86-0.14-7.28-0.42
	c-2.45-0.28-4.83-0.96-7.06-2c-2.39-1.13-4.53-2.71-6.32-4.65c-2.1-2.35-3.67-5.13-4.6-8.14v16.08c0.04,5.83-0.8,11.64-2.49,17.22
	c-1.53,5.1-4.04,9.85-7.37,14c-3.27,4-7.39,7.22-12.06,9.42c-5.13,2.35-10.73,3.52-16.38,3.42c-3.04,0.01-6.08-0.13-9.1-0.43
	c-2.78-0.28-5-0.57-6.52-0.85l1.92-16.91l4.92,0.86c1.48,0.29,2.99,0.47,4.5,0.53c1.57,0.07,3,0.11,4.28,0.11
	c8.27,0,13.87-2.43,16.8-7.28c2.93-4.85,4.39-12.19,4.38-22v-80.28h17.12v38.87c-0.03,3.37,0.37,6.73,1.18,10
	c0.72,2.96,2.11,5.71,4.07,8.05c2.05,2.38,4.66,4.23,7.59,5.37c3.76,1.4,7.76,2.05,11.77,1.93L479.43,303.65z"/>
<path class="st0" d="M476.22,320.77c-3.28,0-4.92-1.28-4.92-3.85v-8.35c0-3.42,1.64-5.13,4.92-5.13h5.57
	c12.26,0,18.39-8.56,18.4-25.68c-0.07-6.31,1.02-12.59,3.21-18.51c1.98-5.38,5-10.33,8.88-14.56c3.79-4.07,8.38-7.31,13.48-9.52
	c11.18-4.6,23.73-4.56,34.88,0.11c4.9,2.22,9.23,5.55,12.63,9.72c3.48,4.39,6.03,9.46,7.49,14.87c1.7,6.23,2.53,12.67,2.46,19.13
	c0.01,5.25-0.71,10.47-2.14,15.52c-1.37,4.95-3.74,9.58-6.95,13.59c-3.39,4.12-7.67,7.42-12.52,9.63
	c-5.14,2.42-11.42,3.63-18.83,3.63c-3.04-0.01-6.08-0.23-9.1-0.64c-3.31-0.44-6.55-1.29-9.65-2.53c-3.37-1.37-6.51-3.25-9.31-5.56
	c-3.31-2.79-6.13-6.12-8.34-9.84c-2.57,6.42-5.93,11.02-10.06,13.8c-4.13,2.78-9.27,4.17-15.41,4.17L476.22,320.77z M542.35,304.77
	c3.85,0.09,7.68-0.64,11.23-2.14c3.04-1.3,5.75-3.28,7.92-5.78c2.1-2.47,3.66-5.35,4.6-8.45c1.02-3.36,1.53-6.86,1.5-10.38
	c0.07-4.3-0.66-8.58-2.14-12.62c-1.3-3.49-3.22-6.72-5.67-9.53c-2.27-2.57-5.03-4.64-8.13-6.1c-2.91-1.39-6.09-2.12-9.31-2.14
	c-3.4,0-6.76,0.73-9.85,2.14c-3.14,1.43-5.95,3.51-8.24,6.1c-2.44,2.79-4.33,6.03-5.56,9.53c-1.4,4.06-2.08,8.33-2,12.62
	c-0.03,3.52,0.48,7.02,1.5,10.38c0.93,3.1,2.5,5.98,4.6,8.45c2.16,2.5,4.87,4.48,7.91,5.78c3.69,1.5,7.66,2.21,11.64,2.09V304.77z"
	/>
</svg>
