<?xml version="1.0" encoding="utf-8"?>
<!-- Generator: Adobe Illustrator 24.1.0, SVG Export Plug-In . SVG Version: 6.00 Build 0)  -->
<svg version="1.1" id="Layer_1" xmlns="http://www.w3.org/2000/svg" xmlns:xlink="http://www.w3.org/1999/xlink" x="0px" y="0px"
	 viewBox="0 0 333 416.2" style="enable-background:new 0 0 333 416.2;" xml:space="preserve">
<style type="text/css">
	.st0{fill-rule:evenodd;clip-rule:evenodd;fill:#5750EC;}
</style>
<g>
	<path class="st0" d="M167,45c67,0,122,54,122,122c0,67-55,122-122,122c-68,0-122-55-122-122C45,99,99,45,167,45z M156,115
		c0-16,23-16,23,0v49v1l34,33c10,11-6,27-17,17l-34-35c-3-2-6-13-6-16V115z M279,160v13h-21v-13H279z M173,279h-13v-21h13V279z
		 M54,173v-13h21v13H54z M160,54h13v21h-13V54z"/>
</g>
</svg>
