<?xml version="1.0" encoding="utf-8"?>
<!-- Generator: Adobe Illustrator 24.1.0, SVG Export Plug-In . SVG Version: 6.00 Build 0)  -->
<svg version="1.1" id="Layer_1" xmlns="http://www.w3.org/2000/svg" xmlns:xlink="http://www.w3.org/1999/xlink" x="0px" y="0px"
	 viewBox="0 0 333 416.2" style="enable-background:new 0 0 333 416.2;" xml:space="preserve">
<style type="text/css">
	.st0{fill-rule:evenodd;clip-rule:evenodd;fill:#5750EC;}
</style>
<g>
	<path class="st0" d="M165.94,70.6c75.51,0,137.5,60.86,137.5,137.5c0,75.51-61.99,137.5-137.5,137.5
		c-76.64,0-137.5-61.99-137.5-137.5C28.44,131.46,89.3,70.6,165.94,70.6z M153.54,149.49c0-18.03,25.92-18.03,25.92,0v55.23v1.13
		l38.32,37.19c11.27,12.4-6.76,30.43-19.16,19.16l-38.32-39.45c-3.38-2.25-6.76-14.65-6.76-18.03V149.49z M292.17,200.21v14.65
		H268.5v-14.65H292.17z M172.7,334.33h-14.65v-23.67h14.65V334.33z M38.58,214.86v-14.65h23.67v14.65H38.58z M158.05,80.74h14.65
		v23.67h-14.65V80.74z"/>
</g>
</svg>
