<svg id="Layer_1" data-name="Layer 1" xmlns="http://www.w3.org/2000/svg" viewBox="0 0 583.22 562"><polygon points="522 380.5 522 522 40 522 40 40 522 40 522 181.5 562 181.5 562 0 0 0 0 562 562 562 562 380.5 522 380.5" style="fill:#5e56a5"/><path d="M635.67,581.65q4.92,0,4.92,3.81v8.24q0,5.07-4.92,5.07H620.26a80.65,80.65,0,0,1-39.8-10.27q-6.42,3.21-12.52,6.85a57.59,57.59,0,0,0-10.81,8.24,37.67,37.67,0,0,0-7.59,10.48,31,31,0,0,0-2.89,13.81q0,13.47,8.88,21.72t27.07,8.24a72.26,72.26,0,0,0,10.48-.86q5.79-.86,10.06-1.93a53.53,53.53,0,0,0,1.29,7.71,58.73,58.73,0,0,1,1.28,7.06,60.93,60.93,0,0,1-12.2,3,99.49,99.49,0,0,1-15.83,1.28,64.08,64.08,0,0,1-17.87-2.57,46.28,46.28,0,0,1-15.84-8,41.64,41.64,0,0,1-11.34-14q-4.39-8.57-4.39-20.54a44.89,44.89,0,0,1,3.53-18.41,52.32,52.32,0,0,1,9.1-14,67.16,67.16,0,0,1,12.3-10.59A142.24,142.24,0,0,1,566.55,578q-4.29-3.84-8.88-8.66t-8.78-9.74a86.21,86.21,0,0,1-7.27-9.84,41.81,41.81,0,0,1-4.39-8.78l-1.07-15.62A79.93,79.93,0,0,1,547.93,518,94.92,94.92,0,0,1,561,512.42,90.63,90.63,0,0,1,574.15,509a70.23,70.23,0,0,1,29.21.75A49.65,49.65,0,0,1,616,514.69a23.42,23.42,0,0,1,7.81,7,13.91,13.91,0,0,1,2.68,7.83,39.39,39.39,0,0,1-1.18,8.69,49.32,49.32,0,0,1-4.49,11.38,89.94,89.94,0,0,1-9.31,13.84,131.33,131.33,0,0,1-15.41,15.88,76.49,76.49,0,0,0,9.84,1.72,131.83,131.83,0,0,0,14.56.64Zm-50.08-57.78a61.28,61.28,0,0,0-9.2.75,76.14,76.14,0,0,0-9.73,2.14,63,63,0,0,0-9,3.32,36.65,36.65,0,0,0-7,4.06,82.77,82.77,0,0,0,4.71,8.35q3.21,5.13,7.38,10.59a102.43,102.43,0,0,0,9.1,10.38,53,53,0,0,0,9.84,7.92,56.47,56.47,0,0,0,10.49-7.7,80.15,80.15,0,0,0,9.2-10A59.31,59.31,0,0,0,608,543.45a20.41,20.41,0,0,0,2.46-8.66,6.63,6.63,0,0,0-2.25-4.93,16.48,16.48,0,0,0-5.78-3.42,40,40,0,0,0-7.91-1.93A62.54,62.54,0,0,0,585.59,523.87Z" transform="translate(-301.97 -278)" style="fill:#5c57a5"/><path d="M632.67,598.77q-4.92,0-4.92-3.8v-8.25q0-5.07,4.92-5.07h32.1v-64.2h17.12v81.32ZM662,633.23a9.87,9.87,0,1,1,2.89,6.95A9.47,9.47,0,0,1,662,633.23Z" transform="translate(-301.97 -278)" style="fill:#5c57a5"/><path d="M781.4,581.65q4.92,0,4.92,3.81v8.24q0,5.07-4.92,5.07h-4.06a63.33,63.33,0,0,1-7.28-.42,22.85,22.85,0,0,1-7.06-2,20.48,20.48,0,0,1-6.32-4.65,21.86,21.86,0,0,1-4.6-8.14v16.08a57.81,57.81,0,0,1-2.49,17.22,41.35,41.35,0,0,1-7.37,14,34.55,34.55,0,0,1-12.06,9.42,37.67,37.67,0,0,1-16.38,3.42,88.09,88.09,0,0,1-9.1-.43c-2.78-.28-5-.57-6.52-.85l1.92-16.91,4.92.86a30.46,30.46,0,0,0,4.5.53c1.57.07,3,.11,4.28.11q12.4,0,16.8-7.28t4.38-22V517.45h17.12v38.87a40.1,40.1,0,0,0,1.18,10,19.87,19.87,0,0,0,4.07,8.05,19.21,19.21,0,0,0,7.59,5.37,31.16,31.16,0,0,0,11.77,1.93Z" transform="translate(-301.97 -278)" style="fill:#5c57a5"/><path d="M778.19,598.77q-4.92,0-4.92-3.85v-8.35q0-5.13,4.92-5.13h5.57q18.39,0,18.4-25.68a51.69,51.69,0,0,1,3.21-18.51,44.11,44.11,0,0,1,8.88-14.56,40.4,40.4,0,0,1,13.48-9.52,45.49,45.49,0,0,1,34.88.11A34.82,34.82,0,0,1,875.24,523a41.18,41.18,0,0,1,7.49,14.87A70,70,0,0,1,885.19,557a56.88,56.88,0,0,1-2.14,15.52,38,38,0,0,1-6.95,13.59,35,35,0,0,1-12.52,9.63q-7.71,3.63-18.83,3.63a68.61,68.61,0,0,1-9.1-.64A40,40,0,0,1,826,596.2a36,36,0,0,1-9.31-5.56,39,39,0,0,1-8.34-9.84q-3.86,9.63-10.06,13.8t-15.41,4.17Zm66.13-16a27.37,27.37,0,0,0,11.23-2.14,21.8,21.8,0,0,0,7.92-5.78,23.66,23.66,0,0,0,4.6-8.45,34.73,34.73,0,0,0,1.5-10.38,35.08,35.08,0,0,0-2.14-12.62,30.86,30.86,0,0,0-5.67-9.53,25.07,25.07,0,0,0-8.13-6.1,22,22,0,0,0-9.31-2.14,23.64,23.64,0,0,0-9.85,2.14,24.66,24.66,0,0,0-8.24,6.1,29.16,29.16,0,0,0-5.56,9.53,36.48,36.48,0,0,0-2,12.62,34.73,34.73,0,0,0,1.5,10.38,23.51,23.51,0,0,0,4.6,8.45,21.68,21.68,0,0,0,7.91,5.78A28.59,28.59,0,0,0,844.32,582.72Z" transform="translate(-301.97 -278)" style="fill:#5c57a5"/></svg>